<mxfile host="Electron" modified="2023-07-15T05:03:48.999Z" agent="Mozilla/5.0 (Windows NT 10.0; Win64; x64) AppleWebKit/537.36 (KHTML, like Gecko) draw.io/21.6.1 Chrome/112.0.5615.204 Electron/24.6.1 Safari/537.36" etag="ZyF2MVjTJSfFrQxE3OtE" version="21.6.1" type="device">
  <diagram name="第 1 页" id="8Kg3en_rJWYI1R34b1Ib">
    <mxGraphModel dx="1434" dy="844" grid="1" gridSize="10" guides="1" tooltips="1" connect="1" arrows="1" fold="1" page="1" pageScale="1" pageWidth="1169" pageHeight="827" math="0" shadow="0">
      <root>
        <mxCell id="0" />
        <mxCell id="1" parent="0" />
        <mxCell id="yaFcchFPZK2eAnLjPoWI-43" style="edgeStyle=orthogonalEdgeStyle;rounded=0;orthogonalLoop=1;jettySize=auto;html=1;entryX=0;entryY=0.5;entryDx=0;entryDy=0;" edge="1" parent="1" source="yaFcchFPZK2eAnLjPoWI-1" target="yaFcchFPZK2eAnLjPoWI-40">
          <mxGeometry relative="1" as="geometry" />
        </mxCell>
        <mxCell id="yaFcchFPZK2eAnLjPoWI-44" value="m" style="edgeLabel;html=1;align=center;verticalAlign=middle;resizable=0;points=[];" vertex="1" connectable="0" parent="yaFcchFPZK2eAnLjPoWI-43">
          <mxGeometry x="-0.1947" y="2" relative="1" as="geometry">
            <mxPoint as="offset" />
          </mxGeometry>
        </mxCell>
        <mxCell id="yaFcchFPZK2eAnLjPoWI-1" value="用户" style="whiteSpace=wrap;html=1;align=center;" vertex="1" parent="1">
          <mxGeometry x="40" y="129.38" width="100" height="40" as="geometry" />
        </mxCell>
        <mxCell id="yaFcchFPZK2eAnLjPoWI-2" value="团队" style="whiteSpace=wrap;html=1;align=center;" vertex="1" parent="1">
          <mxGeometry x="420" y="129.38" width="100" height="40" as="geometry" />
        </mxCell>
        <mxCell id="yaFcchFPZK2eAnLjPoWI-10" style="edgeStyle=orthogonalEdgeStyle;rounded=0;orthogonalLoop=1;jettySize=auto;html=1;" edge="1" parent="1" source="yaFcchFPZK2eAnLjPoWI-5" target="yaFcchFPZK2eAnLjPoWI-1">
          <mxGeometry relative="1" as="geometry" />
        </mxCell>
        <mxCell id="yaFcchFPZK2eAnLjPoWI-5" value="&lt;span style=&quot;border-bottom: 1px dotted&quot;&gt;Uid&lt;br&gt;&lt;/span&gt;" style="ellipse;whiteSpace=wrap;html=1;align=center;" vertex="1" parent="1">
          <mxGeometry x="58.75" y="81.88" width="62.5" height="22.5" as="geometry" />
        </mxCell>
        <mxCell id="yaFcchFPZK2eAnLjPoWI-11" style="edgeStyle=orthogonalEdgeStyle;rounded=0;orthogonalLoop=1;jettySize=auto;html=1;entryX=0.5;entryY=0;entryDx=0;entryDy=0;" edge="1" parent="1" source="yaFcchFPZK2eAnLjPoWI-6" target="yaFcchFPZK2eAnLjPoWI-2">
          <mxGeometry relative="1" as="geometry" />
        </mxCell>
        <mxCell id="yaFcchFPZK2eAnLjPoWI-6" value="&lt;span style=&quot;border-bottom: 1px dotted&quot;&gt;Gid&lt;br&gt;&lt;/span&gt;" style="ellipse;whiteSpace=wrap;html=1;align=center;" vertex="1" parent="1">
          <mxGeometry x="438.75" y="80.63" width="62.5" height="25" as="geometry" />
        </mxCell>
        <mxCell id="yaFcchFPZK2eAnLjPoWI-100" style="edgeStyle=orthogonalEdgeStyle;rounded=0;orthogonalLoop=1;jettySize=auto;html=1;exitX=0.5;exitY=1;exitDx=0;exitDy=0;entryX=0.5;entryY=0;entryDx=0;entryDy=0;" edge="1" parent="1" source="yaFcchFPZK2eAnLjPoWI-22" target="yaFcchFPZK2eAnLjPoWI-40">
          <mxGeometry relative="1" as="geometry" />
        </mxCell>
        <mxCell id="yaFcchFPZK2eAnLjPoWI-22" value="&lt;span style=&quot;border-bottom: 1px dotted&quot;&gt;Bid&lt;br&gt;&lt;/span&gt;" style="ellipse;whiteSpace=wrap;html=1;align=center;" vertex="1" parent="1">
          <mxGeometry x="245.01" y="90.63" width="62.5" height="25" as="geometry" />
        </mxCell>
        <mxCell id="yaFcchFPZK2eAnLjPoWI-49" style="edgeStyle=orthogonalEdgeStyle;rounded=0;orthogonalLoop=1;jettySize=auto;html=1;exitX=1;exitY=0.5;exitDx=0;exitDy=0;entryX=0;entryY=0.5;entryDx=0;entryDy=0;" edge="1" parent="1" source="yaFcchFPZK2eAnLjPoWI-40" target="yaFcchFPZK2eAnLjPoWI-2">
          <mxGeometry relative="1" as="geometry" />
        </mxCell>
        <mxCell id="yaFcchFPZK2eAnLjPoWI-50" value="n" style="edgeLabel;html=1;align=center;verticalAlign=middle;resizable=0;points=[];" vertex="1" connectable="0" parent="yaFcchFPZK2eAnLjPoWI-49">
          <mxGeometry x="-0.0013" y="1" relative="1" as="geometry">
            <mxPoint as="offset" />
          </mxGeometry>
        </mxCell>
        <mxCell id="yaFcchFPZK2eAnLjPoWI-40" value="属于" style="shape=rhombus;perimeter=rhombusPerimeter;whiteSpace=wrap;html=1;align=center;" vertex="1" parent="1">
          <mxGeometry x="234.38" y="131.88" width="83.75" height="35" as="geometry" />
        </mxCell>
        <mxCell id="yaFcchFPZK2eAnLjPoWI-80" style="edgeStyle=orthogonalEdgeStyle;rounded=0;orthogonalLoop=1;jettySize=auto;html=1;exitX=0.5;exitY=1;exitDx=0;exitDy=0;entryX=1;entryY=0.5;entryDx=0;entryDy=0;" edge="1" parent="1" source="yaFcchFPZK2eAnLjPoWI-2" target="yaFcchFPZK2eAnLjPoWI-48">
          <mxGeometry relative="1" as="geometry" />
        </mxCell>
        <mxCell id="yaFcchFPZK2eAnLjPoWI-91" value="m" style="edgeLabel;html=1;align=center;verticalAlign=middle;resizable=0;points=[];" vertex="1" connectable="0" parent="yaFcchFPZK2eAnLjPoWI-80">
          <mxGeometry x="-0.4724" y="1" relative="1" as="geometry">
            <mxPoint as="offset" />
          </mxGeometry>
        </mxCell>
        <mxCell id="yaFcchFPZK2eAnLjPoWI-81" style="edgeStyle=orthogonalEdgeStyle;rounded=0;orthogonalLoop=1;jettySize=auto;html=1;exitX=0.5;exitY=1;exitDx=0;exitDy=0;entryX=0.5;entryY=0;entryDx=0;entryDy=0;" edge="1" parent="1" source="yaFcchFPZK2eAnLjPoWI-48" target="yaFcchFPZK2eAnLjPoWI-63">
          <mxGeometry relative="1" as="geometry" />
        </mxCell>
        <mxCell id="yaFcchFPZK2eAnLjPoWI-92" value="n" style="edgeLabel;html=1;align=center;verticalAlign=middle;resizable=0;points=[];" vertex="1" connectable="0" parent="yaFcchFPZK2eAnLjPoWI-81">
          <mxGeometry x="-0.1243" y="1" relative="1" as="geometry">
            <mxPoint as="offset" />
          </mxGeometry>
        </mxCell>
        <mxCell id="yaFcchFPZK2eAnLjPoWI-48" value="参加" style="shape=rhombus;perimeter=rhombusPerimeter;whiteSpace=wrap;html=1;align=center;" vertex="1" parent="1">
          <mxGeometry x="238.12" y="298.13" width="83.75" height="35" as="geometry" />
        </mxCell>
        <mxCell id="yaFcchFPZK2eAnLjPoWI-99" style="edgeStyle=orthogonalEdgeStyle;rounded=0;orthogonalLoop=1;jettySize=auto;html=1;exitX=0.5;exitY=1;exitDx=0;exitDy=0;entryX=0.5;entryY=0;entryDx=0;entryDy=0;" edge="1" parent="1" source="yaFcchFPZK2eAnLjPoWI-57" target="yaFcchFPZK2eAnLjPoWI-48">
          <mxGeometry relative="1" as="geometry" />
        </mxCell>
        <mxCell id="yaFcchFPZK2eAnLjPoWI-57" value="&lt;span style=&quot;border-bottom: 1px dotted&quot;&gt;Jid&lt;br&gt;&lt;/span&gt;" style="ellipse;whiteSpace=wrap;html=1;align=center;" vertex="1" parent="1">
          <mxGeometry x="248.74" y="250.63" width="62.5" height="25" as="geometry" />
        </mxCell>
        <mxCell id="yaFcchFPZK2eAnLjPoWI-95" style="edgeStyle=orthogonalEdgeStyle;rounded=0;orthogonalLoop=1;jettySize=auto;html=1;exitX=0.5;exitY=0;exitDx=0;exitDy=0;entryX=0.5;entryY=1;entryDx=0;entryDy=0;" edge="1" parent="1" source="yaFcchFPZK2eAnLjPoWI-62" target="yaFcchFPZK2eAnLjPoWI-70">
          <mxGeometry relative="1" as="geometry" />
        </mxCell>
        <mxCell id="yaFcchFPZK2eAnLjPoWI-62" value="题目" style="whiteSpace=wrap;html=1;align=center;" vertex="1" parent="1">
          <mxGeometry x="230" y="570.63" width="100" height="40" as="geometry" />
        </mxCell>
        <mxCell id="yaFcchFPZK2eAnLjPoWI-63" value="比赛" style="whiteSpace=wrap;html=1;align=center;" vertex="1" parent="1">
          <mxGeometry x="230" y="425.63" width="100" height="40" as="geometry" />
        </mxCell>
        <mxCell id="yaFcchFPZK2eAnLjPoWI-89" style="edgeStyle=orthogonalEdgeStyle;rounded=0;orthogonalLoop=1;jettySize=auto;html=1;exitX=0.5;exitY=0;exitDx=0;exitDy=0;entryX=0.5;entryY=1;entryDx=0;entryDy=0;" edge="1" parent="1" source="yaFcchFPZK2eAnLjPoWI-65" target="yaFcchFPZK2eAnLjPoWI-62">
          <mxGeometry relative="1" as="geometry" />
        </mxCell>
        <mxCell id="yaFcchFPZK2eAnLjPoWI-65" value="&lt;span style=&quot;border-bottom: 1px dotted&quot;&gt;CHid&lt;br&gt;&lt;/span&gt;" style="ellipse;whiteSpace=wrap;html=1;align=center;" vertex="1" parent="1">
          <mxGeometry x="245.6199999999999" y="639.38" width="70" height="27.5" as="geometry" />
        </mxCell>
        <mxCell id="yaFcchFPZK2eAnLjPoWI-93" style="edgeStyle=orthogonalEdgeStyle;rounded=0;orthogonalLoop=1;jettySize=auto;html=1;exitX=1;exitY=0.5;exitDx=0;exitDy=0;entryX=0;entryY=0.5;entryDx=0;entryDy=0;" edge="1" parent="1" source="yaFcchFPZK2eAnLjPoWI-67" target="yaFcchFPZK2eAnLjPoWI-63">
          <mxGeometry relative="1" as="geometry" />
        </mxCell>
        <mxCell id="yaFcchFPZK2eAnLjPoWI-67" value="&lt;span style=&quot;border-bottom: 1px dotted&quot;&gt;COid&lt;br&gt;&lt;/span&gt;" style="ellipse;whiteSpace=wrap;html=1;align=center;" vertex="1" parent="1">
          <mxGeometry x="130.62" y="433.13" width="68.75" height="25" as="geometry" />
        </mxCell>
        <mxCell id="yaFcchFPZK2eAnLjPoWI-96" style="edgeStyle=orthogonalEdgeStyle;rounded=0;orthogonalLoop=1;jettySize=auto;html=1;exitX=0.5;exitY=0;exitDx=0;exitDy=0;entryX=0.5;entryY=1;entryDx=0;entryDy=0;" edge="1" parent="1" source="yaFcchFPZK2eAnLjPoWI-70" target="yaFcchFPZK2eAnLjPoWI-63">
          <mxGeometry relative="1" as="geometry" />
        </mxCell>
        <mxCell id="yaFcchFPZK2eAnLjPoWI-70" value="属于" style="shape=rhombus;perimeter=rhombusPerimeter;whiteSpace=wrap;html=1;align=center;" vertex="1" parent="1">
          <mxGeometry x="238.75" y="500.63" width="83.75" height="35" as="geometry" />
        </mxCell>
        <mxCell id="yaFcchFPZK2eAnLjPoWI-98" style="edgeStyle=orthogonalEdgeStyle;rounded=0;orthogonalLoop=1;jettySize=auto;html=1;exitX=0;exitY=0.5;exitDx=0;exitDy=0;entryX=1;entryY=0.5;entryDx=0;entryDy=0;" edge="1" parent="1" source="yaFcchFPZK2eAnLjPoWI-71" target="yaFcchFPZK2eAnLjPoWI-70">
          <mxGeometry relative="1" as="geometry" />
        </mxCell>
        <mxCell id="yaFcchFPZK2eAnLjPoWI-71" value="&lt;span style=&quot;border-bottom: 1px dotted&quot;&gt;Bid&lt;br&gt;&lt;/span&gt;" style="ellipse;whiteSpace=wrap;html=1;align=center;" vertex="1" parent="1">
          <mxGeometry x="340.6200000000001" y="505.63" width="62.5" height="25" as="geometry" />
        </mxCell>
        <mxCell id="yaFcchFPZK2eAnLjPoWI-116" style="edgeStyle=orthogonalEdgeStyle;rounded=0;orthogonalLoop=1;jettySize=auto;html=1;entryX=0.14;entryY=1;entryDx=0;entryDy=0;entryPerimeter=0;" edge="1" parent="1" source="yaFcchFPZK2eAnLjPoWI-76" target="yaFcchFPZK2eAnLjPoWI-63">
          <mxGeometry relative="1" as="geometry" />
        </mxCell>
        <mxCell id="yaFcchFPZK2eAnLjPoWI-76" value="&lt;span style=&quot;border-bottom: 1px dotted&quot;&gt;Flag&lt;br&gt;&lt;/span&gt;" style="ellipse;whiteSpace=wrap;html=1;align=center;" vertex="1" parent="1">
          <mxGeometry x="133.74" y="475.63" width="62.5" height="25" as="geometry" />
        </mxCell>
        <mxCell id="yaFcchFPZK2eAnLjPoWI-123" value="日志" style="whiteSpace=wrap;html=1;align=center;" vertex="1" parent="1">
          <mxGeometry x="920" y="306.25" width="100" height="40" as="geometry" />
        </mxCell>
        <mxCell id="yaFcchFPZK2eAnLjPoWI-136" value="分数" style="whiteSpace=wrap;html=1;align=center;" vertex="1" parent="1">
          <mxGeometry x="917.5" y="100" width="100" height="40" as="geometry" />
        </mxCell>
        <mxCell id="yaFcchFPZK2eAnLjPoWI-138" style="edgeStyle=orthogonalEdgeStyle;rounded=0;orthogonalLoop=1;jettySize=auto;html=1;exitX=1;exitY=0.5;exitDx=0;exitDy=0;entryX=0;entryY=0.5;entryDx=0;entryDy=0;" edge="1" parent="1" source="yaFcchFPZK2eAnLjPoWI-137" target="yaFcchFPZK2eAnLjPoWI-136">
          <mxGeometry relative="1" as="geometry" />
        </mxCell>
        <mxCell id="yaFcchFPZK2eAnLjPoWI-137" value="&lt;span style=&quot;border-bottom: 1px dotted&quot;&gt;Sid&lt;br&gt;&lt;/span&gt;" style="ellipse;whiteSpace=wrap;html=1;align=center;" vertex="1" parent="1">
          <mxGeometry x="827.5" y="107.5" width="62.5" height="25" as="geometry" />
        </mxCell>
        <mxCell id="yaFcchFPZK2eAnLjPoWI-140" style="edgeStyle=orthogonalEdgeStyle;rounded=0;orthogonalLoop=1;jettySize=auto;html=1;exitX=0.5;exitY=1;exitDx=0;exitDy=0;entryX=0.5;entryY=0;entryDx=0;entryDy=0;" edge="1" parent="1" source="yaFcchFPZK2eAnLjPoWI-139" target="yaFcchFPZK2eAnLjPoWI-136">
          <mxGeometry relative="1" as="geometry" />
        </mxCell>
        <mxCell id="yaFcchFPZK2eAnLjPoWI-139" value="&lt;span style=&quot;border-bottom: 1px dotted&quot;&gt;Gid&lt;br&gt;&lt;/span&gt;" style="ellipse;whiteSpace=wrap;html=1;align=center;" vertex="1" parent="1">
          <mxGeometry x="936.25" y="50" width="62.5" height="25" as="geometry" />
        </mxCell>
        <mxCell id="yaFcchFPZK2eAnLjPoWI-142" style="edgeStyle=orthogonalEdgeStyle;rounded=0;orthogonalLoop=1;jettySize=auto;html=1;entryX=1;entryY=0.5;entryDx=0;entryDy=0;" edge="1" parent="1" source="yaFcchFPZK2eAnLjPoWI-141" target="yaFcchFPZK2eAnLjPoWI-136">
          <mxGeometry relative="1" as="geometry" />
        </mxCell>
        <mxCell id="yaFcchFPZK2eAnLjPoWI-141" value="&lt;span style=&quot;border-bottom: 1px dotted&quot;&gt;Uid&lt;br&gt;&lt;/span&gt;" style="ellipse;whiteSpace=wrap;html=1;align=center;" vertex="1" parent="1">
          <mxGeometry x="1047.5" y="108.75" width="62.5" height="22.5" as="geometry" />
        </mxCell>
        <mxCell id="yaFcchFPZK2eAnLjPoWI-145" style="edgeStyle=orthogonalEdgeStyle;rounded=0;orthogonalLoop=1;jettySize=auto;html=1;exitX=0.5;exitY=0;exitDx=0;exitDy=0;entryX=0.138;entryY=1.049;entryDx=0;entryDy=0;entryPerimeter=0;" edge="1" parent="1" source="yaFcchFPZK2eAnLjPoWI-143" target="yaFcchFPZK2eAnLjPoWI-136">
          <mxGeometry relative="1" as="geometry" />
        </mxCell>
        <mxCell id="yaFcchFPZK2eAnLjPoWI-143" value="&lt;span style=&quot;border-bottom: 1px dotted&quot;&gt;COid&lt;br&gt;&lt;/span&gt;" style="ellipse;whiteSpace=wrap;html=1;align=center;" vertex="1" parent="1">
          <mxGeometry x="897.5" y="175" width="68.75" height="25" as="geometry" />
        </mxCell>
        <mxCell id="yaFcchFPZK2eAnLjPoWI-148" style="edgeStyle=orthogonalEdgeStyle;rounded=0;orthogonalLoop=1;jettySize=auto;html=1;exitX=0.5;exitY=0;exitDx=0;exitDy=0;entryX=0.86;entryY=1.004;entryDx=0;entryDy=0;entryPerimeter=0;" edge="1" parent="1" source="yaFcchFPZK2eAnLjPoWI-144" target="yaFcchFPZK2eAnLjPoWI-136">
          <mxGeometry relative="1" as="geometry" />
        </mxCell>
        <mxCell id="yaFcchFPZK2eAnLjPoWI-144" value="&lt;span style=&quot;border-bottom: 1px dotted&quot;&gt;CHid&lt;br&gt;&lt;/span&gt;" style="ellipse;whiteSpace=wrap;html=1;align=center;" vertex="1" parent="1">
          <mxGeometry x="966.2499999999999" y="172.5" width="70" height="27.5" as="geometry" />
        </mxCell>
        <mxCell id="yaFcchFPZK2eAnLjPoWI-150" style="edgeStyle=orthogonalEdgeStyle;rounded=0;orthogonalLoop=1;jettySize=auto;html=1;exitX=0.5;exitY=1;exitDx=0;exitDy=0;entryX=0.5;entryY=0;entryDx=0;entryDy=0;" edge="1" parent="1" source="yaFcchFPZK2eAnLjPoWI-149" target="yaFcchFPZK2eAnLjPoWI-123">
          <mxGeometry relative="1" as="geometry" />
        </mxCell>
        <mxCell id="yaFcchFPZK2eAnLjPoWI-149" value="&lt;span style=&quot;border-bottom: 1px dotted&quot;&gt;Rid&lt;br&gt;&lt;/span&gt;" style="ellipse;whiteSpace=wrap;html=1;align=center;" vertex="1" parent="1">
          <mxGeometry x="938.75" y="258.75" width="62.5" height="25" as="geometry" />
        </mxCell>
        <mxCell id="yaFcchFPZK2eAnLjPoWI-151" style="edgeStyle=orthogonalEdgeStyle;rounded=0;orthogonalLoop=1;jettySize=auto;html=1;exitX=0.5;exitY=0;exitDx=0;exitDy=0;entryX=0.138;entryY=1.049;entryDx=0;entryDy=0;entryPerimeter=0;" edge="1" source="yaFcchFPZK2eAnLjPoWI-152" parent="1">
          <mxGeometry relative="1" as="geometry">
            <mxPoint x="934.63" y="348.25" as="targetPoint" />
          </mxGeometry>
        </mxCell>
        <mxCell id="yaFcchFPZK2eAnLjPoWI-152" value="&lt;span style=&quot;border-bottom: 1px dotted&quot;&gt;COid&lt;br&gt;&lt;/span&gt;" style="ellipse;whiteSpace=wrap;html=1;align=center;" vertex="1" parent="1">
          <mxGeometry x="900.63" y="381.25" width="68.75" height="25" as="geometry" />
        </mxCell>
        <mxCell id="yaFcchFPZK2eAnLjPoWI-153" style="edgeStyle=orthogonalEdgeStyle;rounded=0;orthogonalLoop=1;jettySize=auto;html=1;exitX=0.5;exitY=0;exitDx=0;exitDy=0;entryX=0.86;entryY=1.004;entryDx=0;entryDy=0;entryPerimeter=0;" edge="1" source="yaFcchFPZK2eAnLjPoWI-154" parent="1">
          <mxGeometry relative="1" as="geometry">
            <mxPoint x="1006.6300000000001" y="346.25" as="targetPoint" />
          </mxGeometry>
        </mxCell>
        <mxCell id="yaFcchFPZK2eAnLjPoWI-154" value="&lt;span style=&quot;border-bottom: 1px dotted&quot;&gt;CHid&lt;br&gt;&lt;/span&gt;" style="ellipse;whiteSpace=wrap;html=1;align=center;" vertex="1" parent="1">
          <mxGeometry x="969.3799999999999" y="378.75" width="70" height="27.5" as="geometry" />
        </mxCell>
        <mxCell id="yaFcchFPZK2eAnLjPoWI-157" style="edgeStyle=orthogonalEdgeStyle;rounded=0;orthogonalLoop=1;jettySize=auto;html=1;entryX=0;entryY=0.5;entryDx=0;entryDy=0;" edge="1" parent="1" source="yaFcchFPZK2eAnLjPoWI-155" target="yaFcchFPZK2eAnLjPoWI-123">
          <mxGeometry relative="1" as="geometry" />
        </mxCell>
        <mxCell id="yaFcchFPZK2eAnLjPoWI-155" value="&lt;span style=&quot;border-bottom: 1px dotted&quot;&gt;Gid&lt;br&gt;&lt;/span&gt;" style="ellipse;whiteSpace=wrap;html=1;align=center;" vertex="1" parent="1">
          <mxGeometry x="827.5" y="315" width="62.5" height="25" as="geometry" />
        </mxCell>
        <mxCell id="yaFcchFPZK2eAnLjPoWI-159" style="edgeStyle=orthogonalEdgeStyle;rounded=0;orthogonalLoop=1;jettySize=auto;html=1;entryX=1;entryY=0.5;entryDx=0;entryDy=0;" edge="1" parent="1" source="yaFcchFPZK2eAnLjPoWI-158" target="yaFcchFPZK2eAnLjPoWI-123">
          <mxGeometry relative="1" as="geometry" />
        </mxCell>
        <mxCell id="yaFcchFPZK2eAnLjPoWI-158" value="&lt;span style=&quot;border-bottom: 1px dotted&quot;&gt;Uid&lt;br&gt;&lt;/span&gt;" style="ellipse;whiteSpace=wrap;html=1;align=center;" vertex="1" parent="1">
          <mxGeometry x="1047.5" y="315" width="62.5" height="22.5" as="geometry" />
        </mxCell>
        <mxCell id="yaFcchFPZK2eAnLjPoWI-166" value="" style="edgeStyle=orthogonalEdgeStyle;rounded=0;orthogonalLoop=1;jettySize=auto;html=1;" edge="1" parent="1" source="yaFcchFPZK2eAnLjPoWI-164" target="yaFcchFPZK2eAnLjPoWI-165">
          <mxGeometry relative="1" as="geometry" />
        </mxCell>
        <mxCell id="yaFcchFPZK2eAnLjPoWI-168" style="edgeStyle=orthogonalEdgeStyle;rounded=0;orthogonalLoop=1;jettySize=auto;html=1;entryX=1;entryY=0.5;entryDx=0;entryDy=0;" edge="1" parent="1" source="yaFcchFPZK2eAnLjPoWI-164" target="yaFcchFPZK2eAnLjPoWI-167">
          <mxGeometry relative="1" as="geometry" />
        </mxCell>
        <mxCell id="yaFcchFPZK2eAnLjPoWI-164" value="容器" style="whiteSpace=wrap;html=1;align=center;" vertex="1" parent="1">
          <mxGeometry x="590" y="570.63" width="100" height="40" as="geometry" />
        </mxCell>
        <mxCell id="yaFcchFPZK2eAnLjPoWI-165" value="&lt;span style=&quot;border-bottom: 1px dotted&quot;&gt;Containerid&lt;br&gt;&lt;/span&gt;" style="ellipse;whiteSpace=wrap;html=1;align=center;" vertex="1" parent="1">
          <mxGeometry x="599.38" y="525.63" width="81.25" height="25" as="geometry" />
        </mxCell>
        <mxCell id="yaFcchFPZK2eAnLjPoWI-169" style="edgeStyle=orthogonalEdgeStyle;rounded=0;orthogonalLoop=1;jettySize=auto;html=1;entryX=1;entryY=0.5;entryDx=0;entryDy=0;" edge="1" parent="1" source="yaFcchFPZK2eAnLjPoWI-167" target="yaFcchFPZK2eAnLjPoWI-62">
          <mxGeometry relative="1" as="geometry" />
        </mxCell>
        <mxCell id="yaFcchFPZK2eAnLjPoWI-167" value="属于" style="shape=rhombus;perimeter=rhombusPerimeter;whiteSpace=wrap;html=1;align=center;" vertex="1" parent="1">
          <mxGeometry x="421.25" y="575.63" width="80" height="30" as="geometry" />
        </mxCell>
        <mxCell id="yaFcchFPZK2eAnLjPoWI-178" style="edgeStyle=orthogonalEdgeStyle;rounded=0;orthogonalLoop=1;jettySize=auto;html=1;exitX=0.5;exitY=0;exitDx=0;exitDy=0;entryX=0.5;entryY=1;entryDx=0;entryDy=0;" edge="1" parent="1" source="yaFcchFPZK2eAnLjPoWI-172" target="yaFcchFPZK2eAnLjPoWI-176">
          <mxGeometry relative="1" as="geometry" />
        </mxCell>
        <mxCell id="yaFcchFPZK2eAnLjPoWI-181" style="edgeStyle=orthogonalEdgeStyle;rounded=0;orthogonalLoop=1;jettySize=auto;html=1;exitX=0.5;exitY=1;exitDx=0;exitDy=0;entryX=0.5;entryY=0;entryDx=0;entryDy=0;" edge="1" parent="1" source="yaFcchFPZK2eAnLjPoWI-172" target="yaFcchFPZK2eAnLjPoWI-167">
          <mxGeometry relative="1" as="geometry" />
        </mxCell>
        <mxCell id="yaFcchFPZK2eAnLjPoWI-172" value="做出题" style="whiteSpace=wrap;html=1;align=center;" vertex="1" parent="1">
          <mxGeometry x="590.01" y="320" width="100" height="40" as="geometry" />
        </mxCell>
        <mxCell id="yaFcchFPZK2eAnLjPoWI-174" style="edgeStyle=orthogonalEdgeStyle;rounded=0;orthogonalLoop=1;jettySize=auto;html=1;exitX=0;exitY=0.5;exitDx=0;exitDy=0;entryX=1;entryY=0.5;entryDx=0;entryDy=0;" edge="1" parent="1" source="yaFcchFPZK2eAnLjPoWI-173" target="yaFcchFPZK2eAnLjPoWI-172">
          <mxGeometry relative="1" as="geometry" />
        </mxCell>
        <mxCell id="yaFcchFPZK2eAnLjPoWI-173" value="&lt;span style=&quot;border-bottom: 1px dotted&quot;&gt;Sid&lt;br&gt;&lt;/span&gt;" style="ellipse;whiteSpace=wrap;html=1;align=center;" vertex="1" parent="1">
          <mxGeometry x="720" y="327.5" width="62.5" height="25" as="geometry" />
        </mxCell>
        <mxCell id="yaFcchFPZK2eAnLjPoWI-179" style="edgeStyle=orthogonalEdgeStyle;rounded=0;orthogonalLoop=1;jettySize=auto;html=1;exitX=0.5;exitY=0;exitDx=0;exitDy=0;entryX=1;entryY=0.5;entryDx=0;entryDy=0;" edge="1" parent="1" source="yaFcchFPZK2eAnLjPoWI-176" target="yaFcchFPZK2eAnLjPoWI-2">
          <mxGeometry relative="1" as="geometry" />
        </mxCell>
        <mxCell id="yaFcchFPZK2eAnLjPoWI-176" value="属于" style="shape=rhombus;perimeter=rhombusPerimeter;whiteSpace=wrap;html=1;align=center;" vertex="1" parent="1">
          <mxGeometry x="599.38" y="200" width="80" height="30" as="geometry" />
        </mxCell>
      </root>
    </mxGraphModel>
  </diagram>
</mxfile>
